<?xml version="1.0" encoding="UTF-8"?>
<!DOCTYPE svg PUBLIC "-//W3C//DTD SVG 1.1//EN" "http://www.w3.org/Graphics/SVG/1.1/DTD/svg11.dtd">
<svg xmlns="http://www.w3.org/2000/svg" version="1.1" width="261px" height="265px" style="shape-rendering:geometricPrecision; text-rendering:geometricPrecision; image-rendering:optimizeQuality; fill-rule:evenodd; clip-rule:evenodd" xmlns:xlink="http://www.w3.org/1999/xlink">
<g><path style="opacity:1" fill="#dd1805" d="M 135.5,5.5 C 136.568,6.43448 137.901,6.76781 139.5,6.5C 139.5,8.83333 139.5,11.1667 139.5,13.5C 137.556,16.0107 134.889,17.344 131.5,17.5C 116.127,16.4261 101.794,19.9261 88.5,28C 71.6487,37.1718 56.8153,49.0052 44,63.5C 36.6021,72.6301 31.6021,82.9635 29,94.5C 27.5207,105.813 26.1874,117.147 25,128.5C 23.3459,131.964 22.1793,135.631 21.5,139.5C 22.5424,145.129 23.2091,150.796 23.5,156.5C 22.5,157.167 21.5,157.833 20.5,158.5C 20.3284,159.492 20.6618,160.158 21.5,160.5C 21.5,161.833 22.1667,162.5 23.5,162.5C 23.8333,162.5 24.1667,162.5 24.5,162.5C 27.6776,168.196 30.3443,174.196 32.5,180.5C 32.427,182.027 33.0937,183.027 34.5,183.5C 38.8333,187.167 42.8333,191.167 46.5,195.5C 46.5,197.5 47.5,198.5 49.5,198.5C 52.8333,201.167 55.8333,204.167 58.5,207.5C 59.1667,208.833 60.1667,209.833 61.5,210.5C 61.9731,211.906 62.9731,212.573 64.5,212.5C 68.631,216.13 72.631,219.963 76.5,224C 78.1966,224.384 79.8632,224.218 81.5,223.5C 83.7957,223.804 84.129,224.804 82.5,226.5C 82.8333,227.5 83.5,228.167 84.5,228.5C 84.8212,230.048 85.8212,230.715 87.5,230.5C 103.313,233.467 119.147,236.467 135,239.5C 139.078,238.251 143.245,237.584 147.5,237.5C 150.01,237.946 152.01,237.28 153.5,235.5C 153.5,234.833 153.833,234.5 154.5,234.5C 156.301,233.242 157.801,231.576 159,229.5C 159.383,230.056 159.883,230.389 160.5,230.5C 160.56,231.043 160.893,231.376 161.5,231.5C 163.213,231.121 164.213,230.121 164.5,228.5C 164.5,228.167 164.5,227.833 164.5,227.5C 165.496,227.414 166.329,227.748 167,228.5C 167.464,227.906 167.631,227.239 167.5,226.5C 169.886,226.259 171.886,226.925 173.5,228.5C 174.833,228.5 175.5,227.833 175.5,226.5C 176.167,226.5 176.833,226.5 177.5,226.5C 178.605,227.6 179.938,228.267 181.5,228.5C 183.05,227.559 184.716,226.893 186.5,226.5C 188.027,226.573 189.027,225.906 189.5,224.5C 193.535,221.143 197.868,218.143 202.5,215.5C 204.027,215.573 205.027,214.906 205.5,213.5C 215.141,205.679 225.141,198.346 235.5,191.5C 236.779,192.715 237.779,192.382 238.5,190.5C 238.5,189.833 238.833,189.5 239.5,189.5C 240.906,189.027 241.573,188.027 241.5,186.5C 242.5,184.833 243.833,183.5 245.5,182.5C 246.833,182.5 247.5,183.167 247.5,184.5C 242.217,199.072 234.383,212.072 224,223.5C 223.963,225.974 223.13,227.974 221.5,229.5C 219.143,229.337 216.81,229.503 214.5,230C 213.944,230.383 213.611,230.883 213.5,231.5C 212.833,232.167 212.167,232.833 211.5,233.5C 209.047,232.355 206.713,232.688 204.5,234.5C 204.5,235.167 204.5,235.833 204.5,236.5C 204.833,237.5 205.5,238.167 206.5,238.5C 207.338,238.842 207.672,239.508 207.5,240.5C 207.631,241.239 207.464,241.906 207,242.5C 206.292,241.619 205.458,240.953 204.5,240.5C 203.833,240.5 203.167,240.5 202.5,240.5C 200.973,240.427 199.973,241.094 199.5,242.5C 197.205,245.297 194.705,247.964 192,250.5C 191.209,251.745 190.709,253.078 190.5,254.5C 188.695,256.197 186.361,257.03 183.5,257C 182.748,257.671 182.414,258.504 182.5,259.5C 181.9,260.9 180.9,261.9 179.5,262.5C 178.009,259.909 175.675,258.909 172.5,259.5C 170.409,259.318 168.409,259.652 166.5,260.5C 165.614,261.325 165.281,262.325 165.5,263.5C 163.833,263.5 162.167,263.5 160.5,263.5C 158.407,262.955 156.407,262.122 154.5,261C 147.37,260.826 140.37,259.993 133.5,258.5C 124.274,257.322 114.94,257.656 105.5,259.5C 105.5,258.5 105.5,257.5 105.5,256.5C 103.784,256.371 102.117,256.038 100.5,255.5C 99.5084,255.672 98.8417,255.338 98.5,254.5C 98.0269,253.094 97.0269,252.427 95.5,252.5C 90.735,250.618 86.0683,248.452 81.5,246C 77.7808,245.612 74.1141,244.945 70.5,244C 69.0577,243.623 68.0577,242.79 67.5,241.5C 67.0269,240.094 66.0269,239.427 64.5,239.5C 63.5084,239.672 62.8417,239.338 62.5,238.5C 57.1002,236.783 51.4335,235.783 45.5,235.5C 43.2654,234.772 41.4321,233.439 40,231.5C 36.6925,225.916 34.3592,219.916 33,213.5C 30.1261,212.468 28.6261,210.468 28.5,207.5C 28.5979,205.447 27.9313,203.78 26.5,202.5C 21.4381,190.824 16.2714,179.158 11,167.5C 9.60682,163.372 9.44015,159.372 10.5,155.5C 11.5,155.5 12.5,155.5 13.5,155.5C 13.81,152.287 13.4767,149.287 12.5,146.5C 10.0418,138.991 6.87516,131.658 3,124.5C 2.99984,113.847 4.49984,103.514 7.5,93.5C 9.07394,91.8984 9.74061,89.8984 9.5,87.5C 10.5886,82.9777 12.922,79.311 16.5,76.5C 18.1667,75.5 19.5,74.1667 20.5,72.5C 24.1296,68.369 27.963,64.369 32,60.5C 33.8653,53.4164 37.6986,47.7497 43.5,43.5C 45.5,43.5 46.5,42.5 46.5,40.5C 46.8333,39.5 47.5,38.8333 48.5,38.5C 51.0892,37.5806 53.0892,35.914 54.5,33.5C 54.8333,32.5 55.5,31.8333 56.5,31.5C 58.8333,31.1667 60.1667,29.8333 60.5,27.5C 61.209,26.596 62.209,26.2627 63.5,26.5C 67.1458,27.2834 70.8125,27.4501 74.5,27C 75.3366,25.9887 75.67,24.8221 75.5,23.5C 75.5,22.8333 75.8333,22.5 76.5,22.5C 78.1667,21.5 79.5,20.1667 80.5,18.5C 81.0577,17.2101 82.0577,16.3768 83.5,16C 87.2142,15.6805 90.8809,15.1805 94.5,14.5C 96.8333,14.1667 98.1667,12.8333 98.5,10.5C 100.167,9.83333 101.833,9.16667 103.5,8.5C 103.34,10.1992 103.506,11.8659 104,13.5C 104.717,12.9558 105.217,12.2891 105.5,11.5C 107.153,11.3404 108.486,10.6737 109.5,9.5C 115.551,5.97667 122.051,3.31 129,1.5C 131.924,1.70708 134.09,3.04042 135.5,5.5 Z M 175.5,226.5 C 175.5,227.833 174.833,228.5 173.5,228.5C 173.5,227.167 174.167,226.5 175.5,226.5 Z"/></g>
<g><path style="opacity:0.298" fill="#200603" d="M 135.5,5.5 C 137.167,5.5 138.833,5.5 140.5,5.5C 140.806,8.38544 140.473,11.0521 139.5,13.5C 139.5,11.1667 139.5,8.83333 139.5,6.5C 137.901,6.76781 136.568,6.43448 135.5,5.5 Z"/></g>
<g><path style="opacity:0.886" fill="#6f1609" d="M 103.5,7.5 C 103.5,7.83333 103.5,8.16667 103.5,8.5C 101.833,9.16667 100.167,9.83333 98.5,10.5C 99.4006,8.2729 101.067,7.2729 103.5,7.5 Z"/></g>
<g><path style="opacity:0.033" fill="#230b02" d="M 109.5,9.5 C 108.486,10.6737 107.153,11.3404 105.5,11.5C 106.183,9.82351 107.517,9.15684 109.5,9.5 Z"/></g>
<g><path style="opacity:0.029" fill="#1a0502" d="M 103.5,7.5 C 104.167,8.83333 104.833,10.1667 105.5,11.5C 105.217,12.2891 104.717,12.9558 104,13.5C 103.506,11.8659 103.34,10.1992 103.5,8.5C 103.5,8.16667 103.5,7.83333 103.5,7.5 Z"/></g>
<g><path style="opacity:1" fill="#e01704" d="M 207.5,19.5 C 207.821,21.0481 208.821,21.7148 210.5,21.5C 211.035,23.4456 212.368,24.4456 214.5,24.5C 215.5,25.1667 216.5,25.8333 217.5,26.5C 218.08,28.7488 219.413,30.4154 221.5,31.5C 223.144,31.8102 224.144,32.8102 224.5,34.5C 224.427,36.0269 225.094,37.0269 226.5,37.5C 226.427,39.0269 227.094,40.0269 228.5,40.5C 228.427,42.0269 229.094,43.0269 230.5,43.5C 231.338,43.8417 231.672,44.5084 231.5,45.5C 231.427,47.0269 232.094,48.0269 233.5,48.5C 234.89,49.8993 235.89,51.5659 236.5,53.5C 236.427,55.0269 237.094,56.0269 238.5,56.5C 239.338,56.8417 239.672,57.5084 239.5,58.5C 239.427,60.0269 240.094,61.0269 241.5,61.5C 241.427,63.0269 242.094,64.0269 243.5,64.5C 243.427,66.0269 244.094,67.0269 245.5,67.5C 245.427,69.0269 246.094,70.0269 247.5,70.5C 251.421,75.7137 253.087,81.7137 252.5,88.5C 252.741,96.2013 253.407,103.868 254.5,111.5C 257.055,108.749 258.055,109.416 257.5,113.5C 257.737,114.791 257.404,115.791 256.5,116.5C 255.016,121.253 254.182,126.253 254,131.5C 253.501,126.511 253.334,121.511 253.5,116.5C 252.5,116.5 251.5,116.5 250.5,116.5C 249.549,115.081 249.216,113.415 249.5,111.5C 249.027,110.094 248.027,109.427 246.5,109.5C 242.952,106.094 240.118,102.094 238,97.5C 238.434,93.5478 238.434,89.5478 238,85.5C 236,82.1667 233.333,79.5 230,77.5C 227.798,73.3937 226.298,69.0604 225.5,64.5C 226.014,59.1328 224.348,58.1328 220.5,61.5C 219.038,62.4709 217.705,62.1376 216.5,60.5C 216.027,59.0937 215.027,58.427 213.5,58.5C 212.738,56.7376 211.404,55.7376 209.5,55.5C 204.473,52.6547 199.806,49.3214 195.5,45.5C 195.027,44.0937 194.027,43.427 192.5,43.5C 189.32,41.7451 186.32,39.7451 183.5,37.5C 183.027,36.0937 182.027,35.427 180.5,35.5C 179.508,35.6716 178.842,35.3382 178.5,34.5C 178.027,33.0937 177.027,32.427 175.5,32.5C 169.04,30.6028 162.707,28.6028 156.5,26.5C 156.027,25.0937 155.027,24.427 153.5,24.5C 152.833,23.1667 151.833,22.1667 150.5,21.5C 150.5,19.1667 150.5,16.8333 150.5,14.5C 155.249,14.2813 159.583,13.2813 163.5,11.5C 163.611,10.8826 163.944,10.3826 164.5,10C 180.068,7.91901 194.401,11.0857 207.5,19.5 Z"/></g>
<g><path style="opacity:0.992" fill="#8c190c" d="M 98.5,10.5 C 98.1667,12.8333 96.8333,14.1667 94.5,14.5C 95.5,12.8333 96.8333,11.5 98.5,10.5 Z"/></g>
<g><path style="opacity:0.92" fill="#8f1408" d="M 163.5,11.5 C 159.583,13.2813 155.249,14.2813 150.5,14.5C 150.611,13.8826 150.944,13.3826 151.5,13C 155.585,12.7668 159.585,12.2668 163.5,11.5 Z"/></g>
<g><path style="opacity:0.961" fill="#6f160a" d="M 150.5,14.5 C 150.5,16.8333 150.5,19.1667 150.5,21.5C 147.833,19.1667 147.833,16.8333 150.5,14.5 Z"/></g>
<g><path style="opacity:0.765" fill="#611407" d="M 80.5,18.5 C 79.5,20.1667 78.1667,21.5 76.5,22.5C 76.8333,20.1667 78.1667,18.8333 80.5,18.5 Z"/></g>
<g><path style="opacity:0.961" fill="#65160b" d="M 207.5,19.5 C 208.71,19.9321 209.71,20.5987 210.5,21.5C 208.821,21.7148 207.821,21.0481 207.5,19.5 Z"/></g>
<g><path style="opacity:0.016" fill="#370f03" d="M 150.5,21.5 C 151.833,22.1667 152.833,23.1667 153.5,24.5C 151.5,24.5 150.5,23.5 150.5,21.5 Z"/></g>
<g><path style="opacity:0.98" fill="#66170a" d="M 210.5,21.5 C 212.23,22.0256 213.564,23.0256 214.5,24.5C 212.368,24.4456 211.035,23.4456 210.5,21.5 Z"/></g>
<g><path style="opacity:0.447" fill="#460f06" d="M 153.5,24.5 C 155.027,24.427 156.027,25.0937 156.5,26.5C 154.973,26.573 153.973,25.9063 153.5,24.5 Z"/></g>
<g><path style="opacity:0.639" fill="#5a1307" d="M 75.5,23.5 C 75.67,24.8221 75.3366,25.9887 74.5,27C 70.8125,27.4501 67.1458,27.2834 63.5,26.5C 66.659,25.9268 69.9923,25.7601 73.5,26C 74.0659,25.0053 74.7326,24.172 75.5,23.5 Z"/></g>
<g><path style="opacity:0.733" fill="#4d1305" d="M 217.5,26.5 C 219.587,27.5846 220.92,29.2512 221.5,31.5C 219.413,30.4154 218.08,28.7488 217.5,26.5 Z"/></g>
<g><path style="opacity:0.941" fill="#8b160b" d="M 60.5,27.5 C 60.1667,29.8333 58.8333,31.1667 56.5,31.5C 57.5,29.8333 58.8333,28.5 60.5,27.5 Z"/></g>
<g><path style="opacity:0.424" fill="#420f06" d="M 175.5,32.5 C 177.027,32.427 178.027,33.0937 178.5,34.5C 176.973,34.573 175.973,33.9063 175.5,32.5 Z"/></g>
<g><path style="opacity:0.537" fill="#521006" d="M 180.5,35.5 C 182.027,35.427 183.027,36.0937 183.5,37.5C 181.973,37.573 180.973,36.9063 180.5,35.5 Z"/></g>
<g><path style="opacity:0.522" fill="#501107" d="M 224.5,34.5 C 225.906,34.9731 226.573,35.9731 226.5,37.5C 225.094,37.0269 224.427,36.0269 224.5,34.5 Z"/></g>
<g><path style="opacity:0.894" fill="#711609" d="M 54.5,33.5 C 53.0892,35.914 51.0892,37.5806 48.5,38.5C 49.9108,36.086 51.9108,34.4194 54.5,33.5 Z"/></g>
<g><path style="opacity:0.537" fill="#571108" d="M 226.5,37.5 C 227.906,37.9731 228.573,38.9731 228.5,40.5C 227.094,40.0269 226.427,39.0269 226.5,37.5 Z"/></g>
<g><path style="opacity:0.827" fill="#6c180a" d="M 46.5,40.5 C 46.5,42.5 45.5,43.5 43.5,43.5C 44.1667,42.1667 45.1667,41.1667 46.5,40.5 Z"/></g>
<g><path style="opacity:0.373" fill="#370d05" d="M 228.5,40.5 C 229.906,40.9731 230.573,41.9731 230.5,43.5C 229.094,43.0269 228.427,42.0269 228.5,40.5 Z"/></g>
<g><path style="opacity:0.651" fill="#681409" d="M 192.5,43.5 C 194.027,43.427 195.027,44.0937 195.5,45.5C 193.973,45.573 192.973,44.9063 192.5,43.5 Z"/></g>
<g><path style="opacity:0.443" fill="#440f06" d="M 231.5,45.5 C 232.906,45.9731 233.573,46.9731 233.5,48.5C 232.094,48.0269 231.427,47.0269 231.5,45.5 Z"/></g>
<g><path style="opacity:0.945" fill="#6a140a" d="M 209.5,55.5 C 211.404,55.7376 212.738,56.7376 213.5,58.5C 211.596,58.2624 210.262,57.2624 209.5,55.5 Z"/></g>
<g><path style="opacity:0.463" fill="#461006" d="M 236.5,53.5 C 237.906,53.9731 238.573,54.9731 238.5,56.5C 237.094,56.0269 236.427,55.0269 236.5,53.5 Z"/></g>
<g><path style="opacity:0.58" fill="#571307" d="M 213.5,58.5 C 215.027,58.427 216.027,59.0937 216.5,60.5C 214.973,60.573 213.973,59.9063 213.5,58.5 Z"/></g>
<g><path style="opacity:0.022" fill="#0d0201" d="M 225.5,64.5 C 224.33,62.7215 222.664,61.7215 220.5,61.5C 224.348,58.1328 226.014,59.1328 225.5,64.5 Z"/></g>
<g><path style="opacity:0.482" fill="#4a1006" d="M 239.5,58.5 C 240.906,58.9731 241.573,59.9731 241.5,61.5C 240.094,61.0269 239.427,60.0269 239.5,58.5 Z"/></g>
<g><path style="opacity:1" fill="#ec1603" d="M 179.5,60.5 C 179.5,108.5 179.5,156.5 179.5,204.5C 170.5,204.5 161.5,204.5 152.5,204.5C 153.156,182.807 152.489,161.474 150.5,140.5C 148.5,140.5 146.5,140.5 144.5,140.5C 132.5,140.5 120.5,140.5 108.5,140.5C 108.5,161.833 108.5,183.167 108.5,204.5C 99.8333,204.5 91.1667,204.5 82.5,204.5C 82.5,156.833 82.5,109.167 82.5,61.5C 91.1667,61.5 99.8333,61.5 108.5,61.5C 108.333,80.5029 108.5,99.5029 109,118.5C 123.421,119.49 137.921,119.824 152.5,119.5C 152.5,100.167 152.5,80.8333 152.5,61.5C 161.318,60.5067 170.318,60.1734 179.5,60.5 Z"/></g>
<g><path style="opacity:0.506" fill="#521107" d="M 241.5,61.5 C 242.906,61.9731 243.573,62.9731 243.5,64.5C 242.094,64.0269 241.427,63.0269 241.5,61.5 Z"/></g>
<g><path style="opacity:0.424" fill="#3f0f06" d="M 243.5,64.5 C 244.906,64.9731 245.573,65.9731 245.5,67.5C 244.094,67.0269 243.427,66.0269 243.5,64.5 Z"/></g>
<g><path style="opacity:0.803" fill="#661207" d="M 152.5,61.5 C 152.5,80.8333 152.5,100.167 152.5,119.5C 137.921,119.824 123.421,119.49 109,118.5C 108.5,99.5029 108.333,80.5029 108.5,61.5C 99.8333,61.5 91.1667,61.5 82.5,61.5C 82.5,109.167 82.5,156.833 82.5,204.5C 82.5,204.833 82.5,205.167 82.5,205.5C 81.5012,157.336 81.1678,109.003 81.5,60.5C 90.8333,60.5 100.167,60.5 109.5,60.5C 109.333,79.5029 109.5,98.5029 110,117.5C 123.754,118.49 137.588,118.823 151.5,118.5C 151.17,99.326 151.503,80.326 152.5,61.5 Z"/></g>
<g><path style="opacity:0.239" fill="#290d03" d="M 245.5,67.5 C 246.906,67.9731 247.573,68.9731 247.5,70.5C 246.094,70.0269 245.427,69.0269 245.5,67.5 Z"/></g>
<g><path style="opacity:0.737" fill="#5d1406" d="M 20.5,72.5 C 19.5,74.1667 18.1667,75.5 16.5,76.5C 16.8333,74.1667 18.1667,72.8333 20.5,72.5 Z"/></g>
<g><path style="opacity:0.918" fill="#62130a" d="M 9.5,87.5 C 9.74061,89.8984 9.07394,91.8984 7.5,93.5C 7.59495,91.2143 8.26162,89.2143 9.5,87.5 Z"/></g>
<g><path style="opacity:0.443" fill="#370f05" d="M 252.5,88.5 C 253.835,94.6231 254.669,100.956 255,107.5C 255.333,107.833 255.667,108.167 256,108.5C 257.11,106.963 258.61,106.297 260.5,106.5C 260.5,107.167 260.5,107.833 260.5,108.5C 259.313,110.072 258.313,111.739 257.5,113.5C 258.055,109.416 257.055,108.749 254.5,111.5C 253.407,103.868 252.741,96.2013 252.5,88.5 Z"/></g>
<g><path style="opacity:0.58" fill="#581307" d="M 246.5,109.5 C 248.027,109.427 249.027,110.094 249.5,111.5C 247.973,111.573 246.973,110.906 246.5,109.5 Z"/></g>
<g><path style="opacity:0.608" fill="#2d0d04" d="M 250.5,116.5 C 251.5,116.5 252.5,116.5 253.5,116.5C 253.334,121.511 253.501,126.511 254,131.5C 254.182,126.253 255.016,121.253 256.5,116.5C 256.385,122.687 255.551,128.687 254,134.5C 252.536,133.541 251.703,132.208 251.5,130.5C 253.138,125.572 252.804,120.905 250.5,116.5 Z"/></g>
<g><path style="opacity:0.788" fill="#731507" d="M 144.5,140.5 C 133.007,141.331 121.341,141.831 109.5,142C 109.543,163.042 109.543,184.209 109.5,205.5C 100.5,205.5 91.5,205.5 82.5,205.5C 82.5,205.167 82.5,204.833 82.5,204.5C 91.1667,204.5 99.8333,204.5 108.5,204.5C 108.5,183.167 108.5,161.833 108.5,140.5C 120.5,140.5 132.5,140.5 144.5,140.5 Z"/></g>
<g><path style="opacity:0.04" fill="#040101" d="M 150.5,140.5 C 152.489,161.474 153.156,182.807 152.5,204.5C 152.5,204.833 152.5,205.167 152.5,205.5C 151.823,183.931 151.156,162.265 150.5,140.5 Z"/></g>
<g><path style="opacity:0.046" fill="#1f0803" d="M 12.5,146.5 C 13.4767,149.287 13.81,152.287 13.5,155.5C 12.5,155.5 11.5,155.5 10.5,155.5C 12.2419,152.855 12.9086,149.855 12.5,146.5 Z"/></g>
<g><path style="opacity:0.025" fill="#0a0101" d="M 23.5,156.5 C 24.4614,158.265 24.7947,160.265 24.5,162.5C 24.1667,162.5 23.8333,162.5 23.5,162.5C 23.1667,161.5 22.5,160.833 21.5,160.5C 23.0311,159.075 22.6977,158.409 20.5,158.5C 21.5,157.833 22.5,157.167 23.5,156.5 Z"/></g>
<g><path style="opacity:0.651" fill="#551206" d="M 20.5,169.5 C 21.2485,170.531 21.9152,171.698 22.5,173C 22.1667,173.167 21.8333,173.333 21.5,173.5C 20.5713,172.311 20.238,170.978 20.5,169.5 Z"/></g>
<g><path style="opacity:0.345" fill="#3e0d05" d="M 26.5,173.5 C 25.6618,173.842 25.3284,174.508 25.5,175.5C 24.7315,173.333 23.7315,171.166 22.5,169C 24.5739,169.525 25.9072,171.025 26.5,173.5 Z"/></g>
<g><path style="opacity:0.047" fill="#2a0d03" d="M 26.5,174.5 C 27.8478,175.527 28.3478,176.86 28,178.5C 26.955,177.627 26.1217,176.627 25.5,175.5C 26.1667,175.5 26.5,175.167 26.5,174.5 Z"/></g>
<g><path style="opacity:0.251" fill="#180503" d="M 247.5,180.5 C 248.302,179.115 248.969,179.282 249.5,181C 249.43,181.765 249.097,182.265 248.5,182.5C 248.672,181.508 248.338,180.842 247.5,180.5 Z"/></g>
<g><path style="opacity:0.996" fill="#80170c" d="M 247.5,180.5 C 248.338,180.842 248.672,181.508 248.5,182.5C 248.672,183.492 248.338,184.158 247.5,184.5C 247.5,183.167 246.833,182.5 245.5,182.5C 245.833,181.5 246.5,180.833 247.5,180.5 Z"/></g>
<g><path style="opacity:0.612" fill="#5f1307" d="M 32.5,180.5 C 33.9063,180.973 34.573,181.973 34.5,183.5C 33.0937,183.027 32.427,182.027 32.5,180.5 Z"/></g>
<g><path style="opacity:0.6" fill="#5b1308" d="M 241.5,186.5 C 241.573,188.027 240.906,189.027 239.5,189.5C 239.427,187.973 240.094,186.973 241.5,186.5 Z"/></g>
<g><path style="opacity:0.424" fill="#2d0b04" d="M 238.5,190.5 C 237.779,192.382 236.779,192.715 235.5,191.5C 236.391,190.89 237.391,190.557 238.5,190.5 Z"/></g>
<g><path style="opacity:0.694" fill="#471206" d="M 46.5,195.5 C 47.8333,196.167 48.8333,197.167 49.5,198.5C 47.5,198.5 46.5,197.5 46.5,195.5 Z"/></g>
<g><path style="opacity:0.707" fill="#4d1107" d="M 179.5,60.5 C 180.499,108.664 180.832,156.997 180.5,205.5C 171.257,205.825 161.924,205.825 152.5,205.5C 152.5,205.167 152.5,204.833 152.5,204.5C 161.5,204.5 170.5,204.5 179.5,204.5C 179.5,156.5 179.5,108.5 179.5,60.5 Z"/></g>
<g><path style="opacity:0.404" fill="#330e04" d="M 26.5,202.5 C 27.9313,203.78 28.5979,205.447 28.5,207.5C 27.0687,206.22 26.4021,204.553 26.5,202.5 Z"/></g>
<g><path style="opacity:0.008" fill="#310e03" d="M 58.5,207.5 C 60.5,207.5 61.5,208.5 61.5,210.5C 60.1667,209.833 59.1667,208.833 58.5,207.5 Z"/></g>
<g><path style="opacity:0.02" fill="#300f03" d="M 61.5,210.5 C 63.0269,210.427 64.0269,211.094 64.5,212.5C 62.9731,212.573 61.9731,211.906 61.5,210.5 Z"/></g>
<g><path style="opacity:0.788" fill="#631308" d="M 205.5,213.5 C 205.027,214.906 204.027,215.573 202.5,215.5C 202.973,214.094 203.973,213.427 205.5,213.5 Z"/></g>
<g><path style="opacity:0.416" fill="#290b03" d="M 82.5,226.5 C 84.129,224.804 83.7957,223.804 81.5,223.5C 83.3296,221.069 84.3296,221.236 84.5,224C 84.3158,225.376 83.6491,226.209 82.5,226.5 Z"/></g>
<g><path style="opacity:0.031" fill="#270c03" d="M 177.5,226.5 C 179.292,225.527 180.625,226.194 181.5,228.5C 179.938,228.267 178.605,227.6 177.5,226.5 Z"/></g>
<g><path style="opacity:0.831" fill="#6a1209" d="M 189.5,224.5 C 189.027,225.906 188.027,226.573 186.5,226.5C 186.973,225.094 187.973,224.427 189.5,224.5 Z"/></g>
<g><path style="opacity:0.094" fill="#0a0201" d="M 158.5,227.5 C 157.833,228.5 157.167,229.5 156.5,230.5C 156.238,229.022 156.571,227.689 157.5,226.5C 158.107,226.624 158.44,226.957 158.5,227.5 Z"/></g>
<g><path style="opacity:0.027" fill="#150202" d="M 164.5,227.5 C 165.209,226.596 166.209,226.263 167.5,226.5C 167.631,227.239 167.464,227.906 167,228.5C 166.329,227.748 165.496,227.414 164.5,227.5 Z"/></g>
<g><path style="opacity:0.549" fill="#440e05" d="M 167.5,226.5 C 170.167,225.167 172.833,225.167 175.5,226.5C 174.167,226.5 173.5,227.167 173.5,228.5C 171.886,226.925 169.886,226.259 167.5,226.5 Z"/></g>
<g><path style="opacity:0.961" fill="#6c170b" d="M 84.5,228.5 C 85.7095,228.932 86.7095,229.599 87.5,230.5C 85.8212,230.715 84.8212,230.048 84.5,228.5 Z"/></g>
<g><path style="opacity:0.863" fill="#5d1509" d="M 164.5,228.5 C 164.213,230.121 163.213,231.121 161.5,231.5C 160.893,231.376 160.56,231.043 160.5,230.5C 161.605,229.4 162.938,228.733 164.5,228.5 Z"/></g>
<g><path style="opacity:0.518" fill="#3c0e05" d="M 221.5,229.5 C 218.997,230.371 216.33,231.037 213.5,231.5C 213.611,230.883 213.944,230.383 214.5,230C 216.81,229.503 219.143,229.337 221.5,229.5 Z"/></g>
<g><path style="opacity:0.839" fill="#7a1309" d="M 158.5,227.5 C 159.906,227.973 160.573,228.973 160.5,230.5C 159.883,230.389 159.383,230.056 159,229.5C 157.801,231.576 156.301,233.242 154.5,234.5C 154.989,233.005 155.655,231.671 156.5,230.5C 157.167,229.5 157.833,228.5 158.5,227.5 Z"/></g>
<g><path style="opacity:0.008" fill="#2b0c03" d="M 211.5,233.5 C 209.194,233.993 206.861,234.326 204.5,234.5C 206.713,232.688 209.047,232.355 211.5,233.5 Z"/></g>
<g><path style="opacity:0.247" fill="#220702" d="M 213.5,231.5 C 214.853,232.867 214.519,233.867 212.5,234.5C 211.893,234.376 211.56,234.043 211.5,233.5C 212.167,232.833 212.833,232.167 213.5,231.5 Z"/></g>
<g><path style="opacity:0.016" fill="#170401" d="M 206.5,238.5 C 205.5,238.167 204.833,237.5 204.5,236.5C 208.354,235.011 209.021,235.678 206.5,238.5 Z"/></g>
<g><path style="opacity:0.759" fill="#6a1407" d="M 45.5,235.5 C 51.4335,235.783 57.1002,236.783 62.5,238.5C 56.4968,238.667 50.8301,237.667 45.5,235.5 Z"/></g>
<g><path style="opacity:0.027" fill="#260c03" d="M 153.5,235.5 C 152.01,237.28 150.01,237.946 147.5,237.5C 149.302,236.542 151.302,235.875 153.5,235.5 Z"/></g>
<g><path style="opacity:0.592" fill="#531206" d="M 64.5,239.5 C 66.0269,239.427 67.0269,240.094 67.5,241.5C 65.9731,241.573 64.9731,240.906 64.5,239.5 Z"/></g>
<g><path style="opacity:0.035" fill="#1c0602" d="M 202.5,240.5 C 202.167,241.167 201.833,241.833 201.5,242.5C 200.833,242.5 200.167,242.5 199.5,242.5C 199.973,241.094 200.973,240.427 202.5,240.5 Z"/></g>
<g><path style="opacity:0.004" fill="#290d03" d="M 204.5,240.5 C 205.458,240.953 206.292,241.619 207,242.5C 207.464,241.906 207.631,241.239 207.5,240.5C 208.404,241.209 208.737,242.209 208.5,243.5C 206.027,243.912 204.694,242.912 204.5,240.5 Z"/></g>
<g><path style="opacity:0.008" fill="#000000" d="M 201.5,242.5 C 202.239,242.369 202.906,242.536 203.5,243C 202.563,243.692 201.897,243.525 201.5,242.5 Z"/></g>
<g><path style="opacity:0.427" fill="#420f07" d="M 95.5,252.5 C 97.0269,252.427 98.0269,253.094 98.5,254.5C 96.9731,254.573 95.9731,253.906 95.5,252.5 Z"/></g>
<g><path style="opacity:0.076" fill="#170502" d="M 190.5,254.5 C 191.404,255.209 191.737,256.209 191.5,257.5C 188.162,257.065 185.162,257.732 182.5,259.5C 182.414,258.504 182.748,257.671 183.5,257C 186.361,257.03 188.695,256.197 190.5,254.5 Z"/></g>
<g><path style="opacity:0.021" fill="#310e04" d="M 100.5,255.5 C 102.117,256.038 103.784,256.371 105.5,256.5C 105.5,257.5 105.5,258.5 105.5,259.5C 114.94,257.656 124.274,257.322 133.5,258.5C 123.8,258.726 114.134,259.393 104.5,260.5C 104.5,259.5 104.5,258.5 104.5,257.5C 102.62,257.771 101.287,257.104 100.5,255.5 Z"/></g>
<g><path style="opacity:0.869" fill="#661709" d="M 182.5,259.5 C 183.833,261.167 183.833,262.833 182.5,264.5C 182.167,264.5 181.833,264.5 181.5,264.5C 180.833,263.833 180.167,263.167 179.5,262.5C 180.9,261.9 181.9,260.9 182.5,259.5 Z"/></g>
<g><path style="opacity:0.133" fill="#350f04" d="M 172.5,259.5 C 171.003,260.306 169.336,260.972 167.5,261.5C 166.614,262.325 166.281,263.325 166.5,264.5C 164.5,264.5 162.5,264.5 160.5,264.5C 160.5,264.167 160.5,263.833 160.5,263.5C 162.167,263.5 163.833,263.5 165.5,263.5C 165.281,262.325 165.614,261.325 166.5,260.5C 168.409,259.652 170.409,259.318 172.5,259.5 Z"/></g>
</svg>
